<svg width="23" height="22" viewBox="0 0 23 22" fill="none" xmlns="http://www.w3.org/2000/svg">
<g id="vuesax/linear/message-notif">
<g id="message-notif">
<path id="Vector" d="M20.5772 9.16681V11.9056C20.5772 15.5574 18.7513 17.3833 15.0995 17.3833H14.6431C14.3601 17.3833 14.0862 17.5202 13.9127 17.7485L12.5433 19.5743C11.9408 20.3777 10.9548 20.3777 10.3522 19.5743L8.98283 17.7485C8.83676 17.5476 8.49897 17.3833 8.25248 17.3833H7.79601C4.14424 17.3833 2.31836 16.4703 2.31836 11.9056V7.34093C2.31836 3.68916 4.14424 1.86328 7.79601 1.86328H13.2737" stroke="white" stroke-width="1.36941" stroke-miterlimit="10" stroke-linecap="round" stroke-linejoin="round"/>
<path id="Vector_2" d="M18.2948 6.42799C19.5553 6.42799 20.5772 5.40614 20.5772 4.14563C20.5772 2.88513 19.5553 1.86328 18.2948 1.86328C17.0343 1.86328 16.0125 2.88513 16.0125 4.14563C16.0125 5.40614 17.0343 6.42799 18.2948 6.42799Z" stroke="white" stroke-width="1.36941" stroke-linecap="round" stroke-linejoin="round"/>
<path id="Vector_3" d="M15.0965 10.0795H15.1047" stroke="white" stroke-width="1.82588" stroke-linecap="round" stroke-linejoin="round"/>
<path id="Vector_4" d="M11.4436 10.0795H11.4518" stroke="white" stroke-width="1.82588" stroke-linecap="round" stroke-linejoin="round"/>
<path id="Vector_5" d="M7.79106 10.0795H7.79926" stroke="white" stroke-width="1.82588" stroke-linecap="round" stroke-linejoin="round"/>
</g>
</g>
</svg>
