<svg width="16" height="16" viewBox="0 0 16 16" fill="none" xmlns="http://www.w3.org/2000/svg">
<g id="Component 9">
<g id="tick-circle">
<path id="Vector" opacity="0.4" d="M7.64286 14.1431C11.0355 14.1431 13.7857 11.3929 13.7857 8.00028C13.7857 4.60767 11.0355 1.85742 7.64286 1.85742C4.25025 1.85742 1.5 4.60767 1.5 8.00028C1.5 11.3929 4.25025 14.1431 7.64286 14.1431Z" fill="#BB00DA"/>
<path id="Vector_2" d="M6.77085 10.1988C6.64799 10.1988 6.53128 10.1496 6.44528 10.0636L4.70685 8.32522C4.52871 8.14708 4.52871 7.85222 4.70685 7.67408C4.88499 7.49593 5.17985 7.49593 5.35799 7.67408L6.77085 9.08693L9.92828 5.92951C10.1064 5.75136 10.4013 5.75136 10.5794 5.92951C10.7576 6.10765 10.7576 6.40251 10.5794 6.58065L7.09642 10.0636C7.01042 10.1496 6.89371 10.1988 6.77085 10.1988Z" fill="white"/>
</g>
</g>
</svg>
