<svg width="16" height="16" viewBox="0 0 16 16" fill="none" xmlns="http://www.w3.org/2000/svg">
<g id="vuesax/outline/clock">
<g id="vuesax/outline/clock_2">
<g id="clock">
<path id="Vector" d="M8.00004 15.1673C4.04671 15.1673 0.833374 11.954 0.833374 8.00065C0.833374 4.04732 4.04671 0.833984 8.00004 0.833984C11.9534 0.833984 15.1667 4.04732 15.1667 8.00065C15.1667 11.954 11.9534 15.1673 8.00004 15.1673ZM8.00004 1.83398C4.60004 1.83398 1.83337 4.60065 1.83337 8.00065C1.83337 11.4007 4.60004 14.1673 8.00004 14.1673C11.4 14.1673 14.1667 11.4007 14.1667 8.00065C14.1667 4.60065 11.4 1.83398 8.00004 1.83398Z" fill="#292D32"/>
<path id="Vector_2" d="M10.4733 10.6192C10.3867 10.6192 10.3 10.5992 10.22 10.5459L8.15334 9.31253C7.64001 9.00586 7.26001 8.33253 7.26001 7.73919V5.00586C7.26001 4.73253 7.48668 4.50586 7.76001 4.50586C8.03334 4.50586 8.26001 4.73253 8.26001 5.00586V7.73919C8.26001 7.97919 8.46001 8.33253 8.66668 8.45253L10.7333 9.68586C10.9733 9.82586 11.0467 10.1325 10.9067 10.3725C10.8067 10.5325 10.64 10.6192 10.4733 10.6192Z" fill="#292D32"/>
</g>
</g>
</g>
</svg>
