<svg width="37" height="37" viewBox="0 0 37 37" fill="none" xmlns="http://www.w3.org/2000/svg">
<g id="vuesax/linear/crown">
<g id="crown">
<path id="Vector" d="M25.7458 29.2612H11.2541C10.6066 29.2612 9.88202 28.7524 9.66619 28.1358L3.28369 10.2833C2.37411 7.72409 3.43786 6.93784 5.62702 8.51034L11.6395 12.8116C12.6416 13.5053 13.7824 13.1508 14.2141 12.0253L16.9274 4.79492C17.7908 2.48242 19.2245 2.48242 20.0879 4.79492L22.8012 12.0253C23.2329 13.1508 24.3737 13.5053 25.3604 12.8116L31.0029 8.78784C33.4079 7.06117 34.5641 7.93992 33.5774 10.7303L27.3491 28.1666C27.1179 28.7524 26.3933 29.2612 25.7458 29.2612Z" stroke="#BB00DA" stroke-width="2.3125" stroke-linecap="round" stroke-linejoin="round"/>
<path id="Vector_2" d="M10.0215 33.915H26.9798" stroke="#BB00DA" stroke-width="2.3125" stroke-linecap="round" stroke-linejoin="round"/>
<path id="Vector_3" d="M14.6465 21.585H22.3548" stroke="#BB00DA" stroke-width="2.3125" stroke-linecap="round" stroke-linejoin="round"/>
</g>
</g>
</svg>
