<svg width="23" height="26" viewBox="0 0 23 26" fill="none" xmlns="http://www.w3.org/2000/svg">
<g id="Group">
<path id="Vector" d="M22.1049 6.99944C22.0261 5.05672 21.1955 3.25758 19.7652 1.93709C19.0895 1.31486 18.3208 0.830585 17.479 0.498351C16.6372 0.168933 15.7474 0 14.8324 0C14.7338 0 14.6325 0.00281554 14.5339 0.00563109C12.5912 0.0844663 10.7949 0.915052 9.4716 2.34816L1.28118 11.1862C1.01934 11.4706 1.03341 11.9126 1.31497 12.1772L1.88371 12.7122C2.16808 12.9797 2.61575 12.9656 2.88323 12.6784L11.0793 3.83477C12.014 2.82117 13.3852 2.23836 14.838 2.23836C16.1444 2.23836 17.3692 2.70292 18.2814 3.54758C19.2809 4.47108 19.8638 5.72682 19.9173 7.08954C19.9708 8.44945 19.4978 9.7446 18.5799 10.7385L7.44725 22.6229C6.88977 23.2254 6.07608 23.5717 5.21171 23.5717C4.43462 23.5717 3.70539 23.2958 3.16199 22.7918C2.56791 22.2428 2.22442 21.4967 2.18781 20.6858C2.15403 19.8777 2.43558 19.1063 2.97898 18.5178C2.97898 18.5178 13.3402 7.46119 13.3571 7.44711C14.2637 6.50672 15.6855 7.87507 14.779 8.81547C13.2388 10.4119 9.28301 14.6831 7.34592 16.7806C7.08404 17.065 7.09812 17.507 7.37968 17.7717L7.94842 18.3067C8.23281 18.5741 8.68046 18.5601 8.94793 18.2729L16.4063 10.2317C17.586 8.95343 17.5072 6.95158 16.2261 5.76905C15.6433 5.23128 14.8803 4.93283 14.0835 4.93283C13.6527 4.93283 13.236 5.0173 12.8418 5.18623C12.4364 5.35798 12.076 5.61138 11.7775 5.93798L1.37973 17.0256C-0.571445 19.1401 -0.436299 22.4483 1.67817 24.4023C2.6073 25.2611 3.86022 25.7313 5.20605 25.7313C6.7011 25.7313 8.10043 25.1428 9.04645 24.1179L20.1791 12.2335C21.4968 10.8032 22.181 8.94498 22.1049 6.99944Z" fill="#747373"/>
</g>
</svg>
