<svg width="17" height="18" viewBox="0 0 17 18" fill="none" xmlns="http://www.w3.org/2000/svg">
<g id="vuesax/linear/element-3">
<g id="element-3">
<path id="Vector" d="M15.5833 6.53484V3.319C15.5833 2.32025 15.13 1.9165 14.0038 1.9165H11.1421C10.0158 1.9165 9.5625 2.32025 9.5625 3.319V6.52775C9.5625 7.53359 10.0158 7.93025 11.1421 7.93025H14.0038C15.13 7.93734 15.5833 7.53359 15.5833 6.53484Z" stroke="#BB00DA" stroke-width="1.0625" stroke-linecap="round" stroke-linejoin="round"/>
<path id="Vector_2" d="M15.5833 14.5038V11.6421C15.5833 10.5158 15.13 10.0625 14.0038 10.0625H11.1421C10.0158 10.0625 9.5625 10.5158 9.5625 11.6421V14.5038C9.5625 15.63 10.0158 16.0833 11.1421 16.0833H14.0038C15.13 16.0833 15.5833 15.63 15.5833 14.5038Z" stroke="#BB00DA" stroke-width="1.0625" stroke-linecap="round" stroke-linejoin="round"/>
<path id="Vector_3" d="M7.43746 6.53484V3.319C7.43746 2.32025 6.98413 1.9165 5.85788 1.9165H2.99621C1.86996 1.9165 1.41663 2.32025 1.41663 3.319V6.52775C1.41663 7.53359 1.86996 7.93025 2.99621 7.93025H5.85788C6.98413 7.93734 7.43746 7.53359 7.43746 6.53484Z" stroke="#BB00DA" stroke-width="1.0625" stroke-linecap="round" stroke-linejoin="round"/>
<path id="Vector_4" d="M7.43746 14.5038V11.6421C7.43746 10.5158 6.98413 10.0625 5.85788 10.0625H2.99621C1.86996 10.0625 1.41663 10.5158 1.41663 11.6421V14.5038C1.41663 15.63 1.86996 16.0833 2.99621 16.0833H5.85788C6.98413 16.0833 7.43746 15.63 7.43746 14.5038Z" stroke="#BB00DA" stroke-width="1.0625" stroke-linecap="round" stroke-linejoin="round"/>
</g>
</g>
</svg>
