<?xml version="1.0" encoding="UTF-8"?>
<!DOCTYPE svg PUBLIC "-//W3C//DTD SVG 1.1//EN" "http://www.w3.org/Graphics/SVG/1.1/DTD/svg11.dtd">
<!-- Creator: CorelDRAW 2021 (64-Bit) -->
<svg xmlns="http://www.w3.org/2000/svg" xml:space="preserve" width="817px" height="330px" version="1.1" style="shape-rendering:geometricPrecision; text-rendering:geometricPrecision; image-rendering:optimizeQuality; fill-rule:evenodd; clip-rule:evenodd"
viewBox="0 0 8170 3296"
 xmlns:xlink="http://www.w3.org/1999/xlink"
 xmlns:xodm="http://www.corel.com/coreldraw/odm/2003">
 <defs>
  <style type="text/css">
   <![CDATA[
    .fil4 {fill:none}
    .fil2 {fill:#660066}
    .fil1 {fill:#BB00DA}
    .fil3 {fill:#FF99FF}
    .fil0 {fill:#660066;fill-rule:nonzero}
   ]]>
  </style>
 </defs>
 <g id="Layer_x0020_1">
  <metadata id="CorelCorpID_0Corel-Layer"/>
  <g id="_1250595020144">
   <path class="fil0" d="M3767 2154c3,15 10,28 22,40 12,12 18,21 18,28l0 3c0,9 -7,14 -21,14l-152 0c-14,0 -21,-5 -21,-14l0 -3c0,-5 6,-14 19,-27 13,-13 18,-26 15,-41l-80 -461 -184 521c-6,16 -16,24 -29,24 -15,0 -26,-8 -32,-23l-196 -534 -74 473c-2,14 4,28 18,41 14,13 21,22 21,28l0 3c0,9 -7,14 -22,14l-101 0c-15,0 -22,-5 -22,-14l0 -3c0,-7 6,-16 19,-29 12,-13 20,-26 22,-39l90 -540c2,-15 -3,-28 -16,-41 -12,-12 -19,-21 -19,-27l0 -3c0,-10 6,-15 18,-15l161 0c13,0 19,5 19,15l0 3c0,4 -3,9 -10,16 -6,7 -12,14 -17,23 -5,8 -5,18 -1,29l158 459 161 -464c4,-13 0,-26 -12,-39 -12,-12 -18,-20 -18,-24l0 -3c0,-10 6,-15 18,-15l165 0c12,0 18,5 18,14l0 3c0,5 -7,15 -20,28 -13,13 -18,29 -15,46l100 534z"/>
   <path id="_1" class="fil0" d="M4253 2092c5,-7 12,-10 21,-8 8,2 12,8 12,18 -5,36 -25,70 -59,101 -34,31 -79,47 -136,47 -74,0 -134,-23 -180,-70 -46,-47 -69,-108 -69,-184 0,-72 23,-131 69,-177 46,-46 104,-69 173,-70 54,-1 98,11 132,35 34,24 52,58 52,101 0,36 -15,67 -45,92 -30,25 -69,43 -116,54 -39,9 -88,10 -145,5 13,40 33,72 61,95 28,23 61,35 99,35 32,0 59,-7 82,-21 23,-14 39,-31 50,-53zm-187 -303c-35,0 -63,15 -85,45 -22,30 -33,67 -33,111 0,17 1,33 3,48 50,4 94,2 133,-6 23,-5 40,-16 53,-31 13,-15 19,-39 18,-71 -1,-27 -9,-49 -26,-68 -16,-19 -37,-28 -63,-28z"/>
   <path id="_2" class="fil0" d="M4842 1772c12,3 18,10 18,21l0 3c0,4 -3,9 -10,15 -7,6 -13,13 -20,23 -7,9 -10,20 -10,33l0 319c0,82 -21,145 -64,189 -42,44 -97,66 -164,66 -67,0 -121,-15 -163,-44 -42,-29 -63,-61 -63,-96 0,-13 4,-23 13,-32 9,-9 21,-14 37,-14 13,0 24,5 33,15 9,10 18,22 25,37 7,15 15,29 24,44 9,15 22,27 39,38 17,10 37,16 61,16 33,0 60,-15 80,-46 20,-31 30,-78 30,-141l0 -33c-33,37 -78,56 -135,56 -63,0 -118,-23 -164,-68 -46,-45 -69,-103 -69,-173 0,-73 23,-132 67,-179 45,-47 101,-70 168,-70 60,0 108,21 144,64l0 -38c0,-9 3,-15 10,-19 7,-4 16,-5 27,-2l87 18zm-243 429c27,0 52,-11 74,-34 22,-23 34,-54 34,-95l0 -150c0,-33 -13,-64 -39,-93 -26,-28 -56,-43 -90,-43 -37,0 -67,15 -90,46 -22,30 -34,72 -36,125 -1,65 12,122 39,171 27,49 63,73 107,73z"/>
   <path id="_3" class="fil0" d="M5436 1796c0,4 -3,9 -10,15 -7,6 -13,13 -20,23 -7,9 -10,20 -10,33l0 290c0,15 6,28 19,40 13,12 19,21 19,26l0 3c0,9 -6,14 -17,14l-104 0c-13,0 -19,-6 -19,-19l0 -40c-33,46 -81,69 -144,69 -64,0 -119,-23 -165,-69 -46,-46 -68,-107 -68,-182 0,-73 23,-132 67,-179 45,-47 101,-70 168,-70 58,0 105,21 142,63l0 -37c0,-9 3,-15 10,-19 7,-4 16,-5 27,-2l87 18c12,3 18,10 18,21l0 3zm-259 415c27,0 52,-11 73,-34 22,-23 33,-54 33,-95l0 -160c0,-33 -13,-64 -38,-93 -25,-28 -55,-43 -89,-43 -37,0 -67,15 -90,46 -23,30 -34,72 -35,125 -1,70 12,130 39,179 27,49 63,74 108,75z"/>
   <path id="_4" class="fil0" d="M5982 2156c0,15 6,28 19,40 13,12 19,21 19,26l0 3c0,9 -6,14 -17,14l-104 0c-12,0 -19,-6 -20,-19l-3 -35c-33,43 -80,64 -140,64 -64,0 -119,-23 -165,-69 -46,-46 -68,-107 -68,-182 0,-73 22,-132 67,-179 45,-47 101,-70 168,-70 52,0 96,17 131,51l0 -188c0,-13 -4,-23 -12,-31 -8,-8 -15,-15 -23,-20 -8,-5 -12,-11 -12,-17l0 -2c0,-9 6,-15 18,-20l106 -34c23,-8 35,-2 35,18l0 649zm-219 55c27,0 52,-11 73,-34 22,-23 33,-54 33,-95l0 -160c0,-33 -13,-64 -38,-93 -25,-28 -55,-43 -89,-43 -37,0 -67,15 -90,46 -23,30 -34,72 -35,125 -1,70 12,130 39,179 27,49 63,74 108,75z"/>
   <path id="_5" class="fil0" d="M6490 2092c5,-7 12,-10 21,-8 8,2 12,8 12,18 -5,36 -25,70 -59,101 -34,31 -79,47 -136,47 -74,0 -134,-23 -180,-70 -46,-47 -69,-108 -69,-184 0,-72 23,-131 69,-177 46,-46 104,-69 173,-70 54,-1 98,11 132,35 34,24 52,58 52,101 0,36 -15,67 -45,92 -30,25 -69,43 -116,54 -39,9 -88,10 -145,5 13,40 33,72 61,95 28,23 61,35 99,35 32,0 59,-7 82,-21 23,-14 39,-31 50,-53zm-187 -303c-35,0 -63,15 -85,45 -22,30 -33,67 -33,111 0,17 1,33 3,48 50,4 94,2 133,-6 23,-5 40,-16 53,-31 13,-15 19,-39 18,-71 -1,-27 -9,-49 -26,-68 -16,-19 -37,-28 -63,-28z"/>
   <path id="_6" class="fil0" d="M7011 1751c22,-3 33,3 33,17l0 421c0,81 -23,143 -68,186 -45,43 -103,65 -174,65 -59,0 -109,-15 -149,-44 -40,-29 -59,-63 -59,-100 0,-13 5,-24 14,-33 9,-9 21,-14 36,-14 16,0 30,8 41,24 11,16 20,33 26,52 6,19 19,37 37,53 18,16 41,25 70,25 73,0 110,-66 110,-198l0 -25c-31,39 -77,59 -138,59 -53,0 -96,-19 -131,-58 -34,-38 -51,-89 -51,-151l0 -173c0,-15 -6,-29 -19,-42 -13,-12 -19,-21 -19,-26l0 -3c0,-10 6,-16 18,-18l105 -17c23,-3 34,2 34,15l-2 274c0,47 8,84 25,110 17,26 40,39 71,39 31,0 56,-12 76,-37 20,-24 31,-55 31,-93l0 -204c0,-15 -7,-29 -19,-42 -13,-12 -20,-21 -20,-26l0 -3c0,-10 6,-16 17,-18l106 -19z"/>
   <g>
    <path class="fil1" d="M1279 1874c-100,23 -83,-61 -52,-78 54,-30 76,28 52,78zm-153 -71c0,171 -13,129 183,245 68,40 68,33 158,26 290,-21 579,-41 869,-62l-4 -332c0,-17 -16,-32 -55,-35l-799 -55c-78,-5 -113,4 -250,82 -65,37 -101,39 -101,130z"/>
    <path class="fil2" d="M2396 2066l-970 58c-56,3 -54,18 -57,72l-6 243 1050 -1 -17 -372z"/>
    <path class="fil3" d="M1622 1380c-109,33 -129,-119 9,-84 9,34 8,57 -9,84zm6 -260c42,-263 518,-325 515,115l-522 2 7 -116zm565 -2c-17,-155 -181,-286 -367,-257 -87,13 -151,61 -199,119 -50,61 -69,154 -67,254l-160 5 -12 306 982 68 -13 -368 -151 -10 -14 -117zm11 266c-112,21 -116,-93 -8,-96 36,48 37,49 8,96z"/>
   </g>
   <rect class="fil4" width="8170" height="3296"/>
  </g>
 </g>
</svg>
