<?xml version="1.0" encoding="UTF-8"?>
<!DOCTYPE svg PUBLIC "-//W3C//DTD SVG 1.1//EN" "http://www.w3.org/Graphics/SVG/1.1/DTD/svg11.dtd">
<!-- Creator: CorelDRAW 2021 (64-Bit) -->
<svg xmlns="http://www.w3.org/2000/svg" xml:space="preserve" width="398px" height="489px" version="1.1" style="shape-rendering:geometricPrecision; text-rendering:geometricPrecision; image-rendering:optimizeQuality; fill-rule:evenodd; clip-rule:evenodd"
viewBox="0 0 3980 4894"
 xmlns:xlink="http://www.w3.org/1999/xlink"
 xmlns:xodm="http://www.corel.com/coreldraw/odm/2003">
 <defs>
  <style type="text/css">
   <![CDATA[
    .fil1 {fill:#660066}
    .fil0 {fill:#BB00DA}
    .fil2 {fill:#FF99FF}
   ]]>
  </style>
 </defs>
 <g id="Layer_x0020_1">
  <metadata id="CorelCorpID_0Corel-Layer"/>
  <g id="_1250597726288">
   <path class="fil0" d="M473 3148c-309,72 -258,-188 -161,-241 168,-92 234,88 161,241zm-472 -219c0,528 -41,397 566,756 209,123 210,101 487,82 895,-64 1790,-127 2685,-191l-13 -1026c-1,-53 -51,-100 -170,-108l-2471 -169c-242,-17 -350,14 -774,255 -202,115 -311,120 -311,401z"/>
   <path class="fil1" d="M3928 3741l-2999 180c-172,10 -166,54 -177,223l-18 750 3247 -4 -52 -1149z"/>
   <path class="fil2" d="M1533 1619c-337,103 -399,-369 27,-260 29,105 25,177 -27,260zm18 -804c130,-812 1602,-1005 1593,355l-1615 5 22 -360zm1747 -7c-54,-480 -559,-884 -1134,-795 -268,42 -466,188 -613,369 -154,190 -214,476 -206,784l-495 16 -36 947 3035 209 -40 -1139 -467 -30 -43 -361zm34 822c-347,65 -360,-286 -24,-295 112,148 113,151 24,295z"/>
  </g>
 </g>
</svg>
