<svg width="18" height="18" viewBox="0 0 18 18" fill="none" xmlns="http://www.w3.org/2000/svg">
<g id="Component 40">
<g id="vuesax/linear/notification-bing">
<g id="notification-bing">
<path id="Vector" d="M9 4.83008V7.32758" stroke="#BB00DA" stroke-width="1.125" stroke-miterlimit="10" stroke-linecap="round"/>
<path id="Vector_2" d="M9.01498 1.5C6.25498 1.5 4.01998 3.735 4.01998 6.495V8.07C4.01998 8.58 3.80998 9.345 3.54748 9.78L2.59498 11.37C2.00998 12.3525 2.41498 13.4475 3.49498 13.8075C7.07998 15 10.9575 15 14.5425 13.8075C15.555 13.47 15.99 12.285 15.4425 11.37L14.49 9.78C14.2275 9.345 14.0175 8.5725 14.0175 8.07V6.495C14.01 3.75 11.76 1.5 9.01498 1.5Z" stroke="#BB00DA" stroke-width="1.125" stroke-miterlimit="10" stroke-linecap="round"/>
<path id="Vector_3" d="M11.4975 14.1147C11.4975 15.4872 10.3725 16.6122 9 16.6122C8.3175 16.6122 7.6875 16.3272 7.2375 15.8772C6.7875 15.4272 6.5025 14.7972 6.5025 14.1147" stroke="#BB00DA" stroke-width="1.125" stroke-miterlimit="10"/>
</g>
</g>
<circle id="Ellipse 60" cx="14" cy="3" r="3" fill="#B52025"/>
</g>
</svg>
