<svg width="33" height="33" viewBox="0 0 33 33" fill="none" xmlns="http://www.w3.org/2000/svg">
<g id="paypal-svgrepo-com (1) 1">
<g id="Group">
<path id="Vector" d="M26.2431 2.56935C24.7204 0.833878 21.968 0.0898438 18.4471 0.0898438H8.22797C7.50759 0.0898438 6.89544 0.61376 6.78265 1.32414L2.52765 28.3104C2.44306 28.8425 2.8551 29.3246 3.39447 29.3246H9.7033L11.2878 19.2747L11.2387 19.5894C11.3515 18.879 11.9591 18.3551 12.6785 18.3551H15.6765C21.566 18.3551 26.1776 15.9629 27.5247 9.04282C27.5647 8.83816 27.5992 8.63896 27.6293 8.44431C27.4592 8.35427 27.4592 8.35427 27.6293 8.44431C28.0304 5.88658 27.6265 4.14565 26.2431 2.56935Z" fill="#27346A"/>
<path id="Vector_2" d="M13.7018 7.52291C13.8701 7.44287 14.0575 7.3983 14.2539 7.3983H22.2655C23.2142 7.3983 24.0992 7.46015 24.9078 7.59022C25.1397 7.62751 25.3644 7.67026 25.5827 7.71938C25.801 7.76759 26.0129 7.82216 26.2185 7.8822C26.3213 7.91221 26.4223 7.94314 26.5214 7.97588C26.9189 8.10868 27.2891 8.26331 27.6293 8.44431C28.0304 5.88567 27.6265 4.14565 26.2431 2.56935C24.7195 0.833878 21.9681 0.0898438 18.4471 0.0898438H8.22706C7.50759 0.0898438 6.89544 0.61376 6.78265 1.32414L2.52765 28.3095C2.44306 28.8425 2.8551 29.3237 3.39357 29.3237H9.70331L12.9905 8.47797C13.0578 8.05047 13.3325 7.70028 13.7018 7.52291Z" fill="#27346A"/>
<path id="Vector_3" d="M27.5244 9.04284C26.1774 15.962 21.5658 18.3551 15.6763 18.3551H12.6774C11.9579 18.3551 11.3503 18.879 11.2385 19.5894L9.2674 32.0852C9.19373 32.5509 9.55392 32.9729 10.0251 32.9729H15.3434C15.9728 32.9729 16.5086 32.5145 16.6068 31.8932L16.6586 31.6222L17.661 25.2697L17.7256 24.9186C17.8238 24.2974 18.3595 23.8389 18.989 23.8389H19.7848C24.9367 23.8389 28.9707 21.746 30.1495 15.6928C30.6416 13.1632 30.3869 11.0512 29.0853 9.56766C28.6905 9.11833 28.2003 8.74723 27.629 8.44434C27.5981 8.6399 27.5645 8.83818 27.5244 9.04284Z" fill="#2790C3"/>
<path id="Vector_4" d="M26.2191 7.88233C26.0135 7.8223 25.8016 7.76773 25.5833 7.71952C25.365 7.67131 25.1394 7.62856 24.9084 7.59127C24.0989 7.46029 23.2148 7.39844 22.2652 7.39844H14.2545C14.0571 7.39844 13.8698 7.44301 13.7024 7.52396C13.3322 7.70133 13.0584 8.0506 12.9911 8.47902L11.2884 19.2748L11.2393 19.5895C11.3511 18.8791 11.9587 18.3552 12.6782 18.3552H15.6771C21.5666 18.3552 26.1782 15.963 27.5252 9.04295C27.5653 8.8383 27.5989 8.64001 27.6298 8.44445C27.2888 8.26436 26.9195 8.10882 26.522 7.97693C26.4228 7.94418 26.3219 7.91235 26.2191 7.88233Z" fill="#1F264F"/>
</g>
</g>
</svg>
