<svg width="27" height="27" viewBox="0 0 27 27" fill="none" xmlns="http://www.w3.org/2000/svg">
<g id="Paystack Logo 1" clip-path="url(#clip0_819_8245)">
<g id="Group">
<path id="Vector" d="M24.1948 0H1.40259C0.631147 0 0 0.632338 0 1.40524V3.93463C0 4.70753 0.631147 5.33987 1.40259 5.33987H24.1247C24.8961 5.33987 25.5273 4.70753 25.5273 3.93463V1.40524C25.5974 0.632338 24.9662 0 24.1948 0ZM24.1948 14.1225H1.40259C0.631147 14.1225 0 14.7549 0 15.5278V18.0572C0 18.8301 0.631147 19.4624 1.40259 19.4624H24.1247C24.8961 19.4624 25.5273 18.8301 25.5273 18.0572V15.5278C25.5974 14.7549 24.9662 14.1225 24.1948 14.1225ZM14.2364 21.219H1.40259C0.631147 21.219 0 21.8513 0 22.6242V25.1536C0 25.9265 0.631147 26.5588 1.40259 26.5588H14.2364C15.0078 26.5588 15.639 25.9265 15.639 25.1536V22.6242C15.639 21.8513 15.0078 21.219 14.2364 21.219ZM25.5974 7.09641H1.40259C0.631147 7.09641 0 7.72875 0 8.5016V11.031C0 11.8039 0.631147 12.4363 1.40259 12.4363H25.5974C26.3689 12.4363 27 11.8039 27 11.031V8.5016C27 7.72875 26.3689 7.09641 25.5974 7.09641Z" fill="#0BA4DB"/>
</g>
</g>
<defs>
<clipPath id="clip0_819_8245">
<rect width="27" height="26.5588" fill="white"/>
</clipPath>
</defs>
</svg>
