<svg width="27" height="27" viewBox="0 0 27 27" fill="none" xmlns="http://www.w3.org/2000/svg">
<g id="Group 112">
<circle id="Ellipse 46" cx="13.9746" cy="13.9238" r="13" fill="#BB00DA"/>
<g id="vuesax/linear/crown">
<g id="crown">
<path id="Vector" d="M17.0204 18.2046H11.9288C11.7013 18.2046 11.4467 18.0259 11.3708 17.8092L9.12835 11.5367C8.80876 10.6376 9.18251 10.3613 9.95168 10.9138L12.0642 12.4251C12.4163 12.6688 12.8171 12.5442 12.9688 12.1488L13.9221 9.6084C14.2254 8.7959 14.7292 8.7959 15.0325 9.6084L15.9858 12.1488C16.1375 12.5442 16.5383 12.6688 16.885 12.4251L18.8675 11.0113C19.7125 10.4046 20.1188 10.7134 19.7721 11.6938L17.5838 17.8201C17.5025 18.0259 17.2479 18.2046 17.0204 18.2046Z" stroke="white" stroke-width="0.8125" stroke-linecap="round" stroke-linejoin="round"/>
<path id="Vector_2" d="M11.4956 19.8398H17.4539" stroke="white" stroke-width="0.8125" stroke-linecap="round" stroke-linejoin="round"/>
<path id="Vector_3" d="M13.1206 15.5078H15.8289" stroke="white" stroke-width="0.8125" stroke-linecap="round" stroke-linejoin="round"/>
</g>
</g>
</g>
</svg>
