<svg width="18" height="18" viewBox="0 0 18 18" fill="none" xmlns="http://www.w3.org/2000/svg">
<g id="XMLID_85_">
<path id="XMLID_86_" d="M9 0C4.0374 0 0 4.0374 0 9C0 13.9626 4.0374 18 9 18C13.9626 18 18 13.9626 18 9C18 4.0374 13.9627 0 9 0ZM9 16.3636C4.93969 16.3636 1.63636 13.0604 1.63636 9C1.63636 4.93964 4.93969 1.63636 9 1.63636C13.0603 1.63636 16.3636 4.93969 16.3636 9C16.3636 13.0603 13.0603 16.3636 9 16.3636Z" fill="black"/>
<path id="XMLID_89_" d="M8.99991 13.7197C8.99996 13.7197 8.99985 13.7197 8.99991 13.7197C10.2674 13.7197 11.4592 13.2261 12.3554 12.3298C12.675 12.0103 12.675 11.4923 12.3554 11.1727C12.1957 11.013 11.9863 10.9331 11.7769 10.9331C11.5675 10.9331 11.3581 11.013 11.1984 11.1727C10.6111 11.76 9.83036 12.0833 8.99991 12.0833C8.16945 12.0833 7.38869 11.7599 6.80145 11.1727C6.48198 10.8533 5.9639 10.8533 5.64438 11.1727C5.32485 11.4922 5.32485 12.0103 5.64438 12.3298C6.54067 13.2261 7.73232 13.7197 8.99991 13.7197Z" fill="black"/>
<path id="XMLID_90_" d="M6.28027 8.02624C6.48373 7.82334 6.59991 7.54188 6.59991 7.25497C6.59991 6.96806 6.48373 6.68661 6.28027 6.48364C6.07736 6.28079 5.79591 6.16406 5.509 6.16406C5.22155 6.16406 4.94064 6.28079 4.73773 6.48364C4.53482 6.68661 4.41809 6.96806 4.41809 7.25497C4.41809 7.54188 4.53482 7.82334 4.73773 8.02624C4.94064 8.22915 5.22209 8.34588 5.509 8.34588C5.79591 8.34588 6.07736 8.22915 6.28027 8.02624Z" fill="black"/>
<path id="XMLID_91_" d="M12.4909 6.16406C12.2034 6.16406 11.9225 6.28079 11.7196 6.48364C11.5161 6.68661 11.3999 6.96806 11.3999 7.25497C11.3999 7.54188 11.5161 7.82334 11.7196 8.02624C11.9225 8.22915 12.2039 8.34588 12.4909 8.34588C12.7778 8.34588 13.0592 8.2291 13.2621 8.02624C13.4656 7.82334 13.5818 7.54188 13.5818 7.25497C13.5818 6.96806 13.4656 6.68661 13.2621 6.48364C13.0592 6.28079 12.7778 6.16406 12.4909 6.16406Z" fill="black"/>
</g>
</svg>
