<svg width="25" height="25" viewBox="0 0 25 25" fill="none" xmlns="http://www.w3.org/2000/svg">
<g id="vuesax/linear/setting">
<g id="setting">
<path id="Vector" d="M3.4939 9.61035V15.3804C3.4939 17.5004 3.4939 17.5004 5.4939 18.8504L10.9939 22.0304C11.8239 22.5104 13.1739 22.5104 13.9939 22.0304L19.4939 18.8504C21.4939 17.5004 21.4939 17.5004 21.4939 15.3904V9.61035C21.4939 7.50035 21.4939 7.50035 19.4939 6.15035L13.9939 2.97035C13.1739 2.49035 11.8239 2.49035 10.9939 2.97035L5.4939 6.15035C3.4939 7.50035 3.4939 7.50035 3.4939 9.61035Z" stroke="#BB00DA" stroke-width="1.5" stroke-linecap="round" stroke-linejoin="round"/>
<path id="Vector_2" d="M12.4939 15.5C14.1508 15.5 15.4939 14.1569 15.4939 12.5C15.4939 10.8431 14.1508 9.5 12.4939 9.5C10.837 9.5 9.4939 10.8431 9.4939 12.5C9.4939 14.1569 10.837 15.5 12.4939 15.5Z" stroke="#BB00DA" stroke-width="1.5" stroke-linecap="round" stroke-linejoin="round"/>
</g>
</g>
</svg>
