<svg width="15" height="16" viewBox="0 0 15 16" fill="none" xmlns="http://www.w3.org/2000/svg">
<g id="Group 16">
<path id="Vector" d="M11.8332 5.11117C13.0298 5.11117 13.9998 4.14112 13.9998 2.9445C13.9998 1.74788 13.0298 0.777832 11.8332 0.777832C10.6366 0.777832 9.6665 1.74788 9.6665 2.9445C9.6665 4.14112 10.6366 5.11117 11.8332 5.11117Z" stroke="#BB00DA" stroke-width="1.44444" stroke-linecap="round" stroke-linejoin="round"/>
<path id="Vector_2" d="M3.16667 10.1663C4.36328 10.1663 5.33333 9.19629 5.33333 7.99967C5.33333 6.80306 4.36328 5.83301 3.16667 5.83301C1.97005 5.83301 1 6.80306 1 7.99967C1 9.19629 1.97005 10.1663 3.16667 10.1663Z" stroke="#BB00DA" stroke-width="1.44444" stroke-linecap="round" stroke-linejoin="round"/>
<path id="Vector_3" d="M11.8332 15.222C13.0298 15.222 13.9998 14.252 13.9998 13.0553C13.9998 11.8587 13.0298 10.8887 11.8332 10.8887C10.6366 10.8887 9.6665 11.8587 9.6665 13.0553C9.6665 14.252 10.6366 15.222 11.8332 15.222Z" stroke="#BB00DA" stroke-width="1.44444" stroke-linecap="round" stroke-linejoin="round"/>
<path id="Vector_4" d="M5.03711 9.09033L9.96989 11.9648" stroke="#BB00DA" stroke-width="1.44444" stroke-linecap="round" stroke-linejoin="round"/>
<path id="Vector_5" d="M9.96266 4.03467L5.03711 6.90911" stroke="#BB00DA" stroke-width="1.44444" stroke-linecap="round" stroke-linejoin="round"/>
</g>
</svg>
