<svg width="16" height="16" viewBox="0 0 16 16" fill="none" xmlns="http://www.w3.org/2000/svg">
<g id="vuesax/outline/shop">
<g id="vuesax/outline/shop_2">
<g id="shop">
<path id="Vector" d="M9.80005 15.1671H6.20005C2.90671 15.1671 1.50671 13.7605 1.50671 10.4738V7.48047C1.50671 7.20714 1.73338 6.98047 2.00671 6.98047C2.28005 6.98047 2.50671 7.20714 2.50671 7.48047V10.4738C2.50671 13.2005 3.47338 14.1671 6.20005 14.1671H9.79338C12.52 14.1671 13.4867 13.2005 13.4867 10.4738V7.48047C13.4867 7.20714 13.7134 6.98047 13.9867 6.98047C14.26 6.98047 14.4867 7.20714 14.4867 7.48047V10.4738C14.4934 13.7605 13.0867 15.1671 9.80005 15.1671Z" fill="#292D32"/>
<path id="Vector_2" d="M7.99996 8.50065C7.26663 8.50065 6.59996 8.21398 6.12663 7.68732C5.65329 7.16065 5.43329 6.47398 5.50663 5.74065L5.95329 1.28732C5.97996 1.03398 6.19329 0.833984 6.45329 0.833984H9.56663C9.82663 0.833984 10.04 1.02732 10.0666 1.28732L10.5133 5.74065C10.5866 6.47398 10.3666 7.16065 9.89329 7.68732C9.39996 8.21398 8.73329 8.50065 7.99996 8.50065ZM6.89996 1.83398L6.49996 5.84065C6.45329 6.28732 6.58663 6.70732 6.86663 7.01398C7.43329 7.64065 8.56663 7.64065 9.13329 7.01398C9.41329 6.70065 9.54663 6.28065 9.49996 5.84065L9.09996 1.83398H6.89996Z" fill="#292D32"/>
<path id="Vector_3" d="M12.2066 8.50065C10.8533 8.50065 9.64663 7.40732 9.50663 6.06065L9.03996 1.38732C9.02663 1.24732 9.07329 1.10732 9.16663 1.00065C9.25996 0.893984 9.39329 0.833984 9.53996 0.833984H11.5733C13.5333 0.833984 14.4466 1.65398 14.72 3.66732L14.9066 5.52065C14.9866 6.30732 14.7466 7.05398 14.2333 7.62065C13.72 8.18732 13 8.50065 12.2066 8.50065ZM10.0933 1.83398L10.5066 5.96065C10.5933 6.79398 11.3666 7.50065 12.2066 7.50065C12.7133 7.50065 13.1666 7.30732 13.4933 6.95398C13.8133 6.60065 13.96 6.12732 13.9133 5.62065L13.7266 3.78732C13.52 2.28065 13.0333 1.83398 11.5733 1.83398H10.0933Z" fill="#292D32"/>
<path id="Vector_4" d="M3.76001 8.50065C2.96668 8.50065 2.24668 8.18732 1.73335 7.62065C1.22001 7.05398 0.980014 6.30732 1.06001 5.52065L1.24001 3.68732C1.52001 1.65398 2.43335 0.833984 4.39335 0.833984H6.42668C6.56668 0.833984 6.70001 0.893984 6.80001 1.00065C6.90001 1.10732 6.94001 1.24732 6.92668 1.38732L6.46001 6.06065C6.32001 7.40732 5.11335 8.50065 3.76001 8.50065ZM4.39335 1.83398C2.93335 1.83398 2.44668 2.27398 2.23335 3.80065L2.05335 5.62065C2.00001 6.12732 2.15335 6.60065 2.47335 6.95398C2.79335 7.30732 3.24668 7.50065 3.76001 7.50065C4.60001 7.50065 5.38001 6.79398 5.46001 5.96065L5.87335 1.83398H4.39335Z" fill="#292D32"/>
<path id="Vector_5" d="M9.66671 15.1673H6.33337C6.06004 15.1673 5.83337 14.9407 5.83337 14.6673V13.0007C5.83337 11.6007 6.60004 10.834 8.00004 10.834C9.40004 10.834 10.1667 11.6007 10.1667 13.0007V14.6673C10.1667 14.9407 9.94004 15.1673 9.66671 15.1673ZM6.83337 14.1673H9.16671V13.0007C9.16671 12.1607 8.84004 11.834 8.00004 11.834C7.16004 11.834 6.83337 12.1607 6.83337 13.0007V14.1673Z" fill="#292D32"/>
</g>
</g>
</g>
</svg>
