<svg width="25" height="26" viewBox="0 0 25 26" fill="none" xmlns="http://www.w3.org/2000/svg">
<g id="XMLID_85_">
<path id="XMLID_86_" d="M12.5 0.109375C5.6075 0.109375 0 5.71688 0 12.6094C0 19.5019 5.6075 25.1094 12.5 25.1094C19.3925 25.1094 25 19.5019 25 12.6094C25 5.71688 19.3926 0.109375 12.5 0.109375ZM12.5 22.8366C6.86068 22.8366 2.27273 18.2488 2.27273 12.6094C2.27273 6.96998 6.86068 2.3821 12.5 2.3821C18.1393 2.3821 22.7273 6.97006 22.7273 12.6094C22.7273 18.2487 18.1393 22.8366 12.5 22.8366Z" fill="#05CC31"/>
<path id="XMLID_89_" d="M12.4999 19.1641C12.4999 19.1641 12.4998 19.1641 12.4999 19.1641C14.2603 19.1641 15.9156 18.4785 17.1603 17.2336C17.6041 16.7899 17.6041 16.0703 17.1603 15.6266C16.9384 15.4047 16.6476 15.2937 16.3568 15.2937C16.0659 15.2937 15.7751 15.4047 15.5533 15.6266C14.7377 16.4422 13.6533 16.8913 12.4999 16.8913C11.3465 16.8913 10.2621 16.4421 9.44646 15.6266C9.00275 15.1828 8.2832 15.1828 7.83941 15.6266C7.39563 16.0703 7.39563 16.7898 7.83941 17.2336C9.08426 18.4785 10.7393 19.1641 12.4999 19.1641Z" fill="#05CC31"/>
<path id="XMLID_90_" d="M8.72259 11.2563C9.00517 10.9745 9.16653 10.5836 9.16653 10.1851C9.16653 9.78659 9.00517 9.39568 8.72259 9.11379C8.44078 8.83204 8.04987 8.66992 7.65138 8.66992C7.25214 8.66992 6.86199 8.83204 6.58017 9.11379C6.29835 9.39568 6.13623 9.78659 6.13623 10.1851C6.13623 10.5836 6.29835 10.9745 6.58017 11.2563C6.86199 11.5381 7.2529 11.7002 7.65138 11.7002C8.04987 11.7002 8.44078 11.5381 8.72259 11.2563Z" fill="#05CC31"/>
<path id="XMLID_91_" d="M17.3484 8.66992C16.9492 8.66992 16.559 8.83204 16.2772 9.11379C15.9946 9.39568 15.8333 9.78659 15.8333 10.1851C15.8333 10.5836 15.9946 10.9745 16.2772 11.2563C16.559 11.5381 16.9499 11.7002 17.3484 11.7002C17.7469 11.7002 18.1378 11.538 18.4196 11.2563C18.7022 10.9745 18.8636 10.5836 18.8636 10.1851C18.8636 9.78659 18.7022 9.39568 18.4196 9.11379C18.1378 8.83204 17.7469 8.66992 17.3484 8.66992Z" fill="#05CC31"/>
</g>
</svg>
