<svg width="18" height="17" viewBox="0 0 18 17" fill="none" xmlns="http://www.w3.org/2000/svg">
<g id="Group">
<g id="Vector">
<mask id="path-1-inside-1_718_8277" fill="white">
<path d="M6.32787 6.93991H9.451C9.60773 6.93991 9.73493 6.813 9.73493 6.65599C9.73493 6.49898 9.60773 6.37207 9.451 6.37207H6.32787C6.17114 6.37207 6.04395 6.49898 6.04395 6.65599C6.04395 6.813 6.17114 6.93991 6.32787 6.93991Z"/>
</mask>
<path d="M6.32787 6.93991H9.451C9.60773 6.93991 9.73493 6.813 9.73493 6.65599C9.73493 6.49898 9.60773 6.37207 9.451 6.37207H6.32787C6.17114 6.37207 6.04395 6.49898 6.04395 6.65599C6.04395 6.813 6.17114 6.93991 6.32787 6.93991Z" fill="#BB00DA"/>
<path d="M6.32787 7.64972H9.451V6.23011H6.32787V7.64972ZM9.451 7.64972C9.99928 7.64972 10.4447 7.20548 10.4447 6.65599H9.02512C9.02512 6.42052 9.21618 6.23011 9.451 6.23011V7.64972ZM10.4447 6.65599C10.4447 6.10651 9.99928 5.66227 9.451 5.66227V7.08187C9.21618 7.08187 9.02512 6.89146 9.02512 6.65599H10.4447ZM9.451 5.66227H6.32787V7.08187H9.451V5.66227ZM6.32787 5.66227C5.77959 5.66227 5.33414 6.10651 5.33414 6.65599H6.75375C6.75375 6.89146 6.56269 7.08187 6.32787 7.08187V5.66227ZM5.33414 6.65599C5.33414 7.20548 5.77959 7.64972 6.32787 7.64972V6.23011C6.56269 6.23011 6.75375 6.42052 6.75375 6.65599H5.33414Z" fill="#BB00DA" mask="url(#path-1-inside-1_718_8277)"/>
</g>
<g id="Vector_2">
<mask id="path-3-inside-2_718_8277" fill="white">
<path d="M10.8703 8.35986H4.90794C4.75122 8.35986 4.62402 8.48678 4.62402 8.64378C4.62402 8.80079 4.75122 8.92771 4.90794 8.92771H10.8703C11.027 8.92771 11.1542 8.80079 11.1542 8.64378C11.1542 8.48678 11.027 8.35986 10.8703 8.35986Z"/>
</mask>
<path d="M10.8703 8.35986H4.90794C4.75122 8.35986 4.62402 8.48678 4.62402 8.64378C4.62402 8.80079 4.75122 8.92771 4.90794 8.92771H10.8703C11.027 8.92771 11.1542 8.80079 11.1542 8.64378C11.1542 8.48678 11.027 8.35986 10.8703 8.35986Z" fill="#BB00DA"/>
<path d="M10.8703 7.65006H4.90794V9.06967H10.8703V7.65006ZM4.90794 7.65006C4.35967 7.65006 3.91422 8.0943 3.91422 8.64378H5.33383C5.33383 8.87925 5.14277 9.06967 4.90794 9.06967V7.65006ZM3.91422 8.64378C3.91422 9.19327 4.35967 9.63751 4.90794 9.63751V8.2179C5.14277 8.2179 5.33383 8.40832 5.33383 8.64378H3.91422ZM4.90794 9.63751H10.8703V8.2179H4.90794V9.63751ZM10.8703 9.63751C11.4186 9.63751 11.864 9.19327 11.864 8.64378H10.4444C10.4444 8.40832 10.6355 8.2179 10.8703 8.2179V9.63751ZM11.864 8.64378C11.864 8.0943 11.4186 7.65006 10.8703 7.65006V9.06967C10.6355 9.06967 10.4444 8.87925 10.4444 8.64378H11.864Z" fill="#BB00DA" mask="url(#path-3-inside-2_718_8277)"/>
</g>
<g id="Vector_3">
<mask id="path-5-inside-3_718_8277" fill="white">
<path d="M10.8703 10.3472H4.90794C4.75122 10.3472 4.62402 10.4741 4.62402 10.6311C4.62402 10.7881 4.75122 10.915 4.90794 10.915H10.8703C11.027 10.915 11.1542 10.7881 11.1542 10.6311C11.1542 10.4741 11.027 10.3472 10.8703 10.3472Z"/>
</mask>
<path d="M10.8703 10.3472H4.90794C4.75122 10.3472 4.62402 10.4741 4.62402 10.6311C4.62402 10.7881 4.75122 10.915 4.90794 10.915H10.8703C11.027 10.915 11.1542 10.7881 11.1542 10.6311C11.1542 10.4741 11.027 10.3472 10.8703 10.3472Z" fill="#BB00DA"/>
<path d="M10.8703 9.63736H4.90794V11.057H10.8703V9.63736ZM4.90794 9.63736C4.35967 9.63736 3.91422 10.0816 3.91422 10.6311H5.33383C5.33383 10.8666 5.14277 11.057 4.90794 11.057V9.63736ZM3.91422 10.6311C3.91422 11.1806 4.35967 11.6248 4.90794 11.6248V10.2052C5.14277 10.2052 5.33383 10.3956 5.33383 10.6311H3.91422ZM4.90794 11.6248H10.8703V10.2052H4.90794V11.6248ZM10.8703 11.6248C11.4186 11.6248 11.864 11.1806 11.864 10.6311H10.4444C10.4444 10.3956 10.6355 10.2052 10.8703 10.2052V11.6248ZM11.864 10.6311C11.864 10.0816 11.4186 9.63736 10.8703 9.63736V11.057C10.6355 11.057 10.4444 10.8666 10.4444 10.6311H11.864Z" fill="#BB00DA" mask="url(#path-5-inside-3_718_8277)"/>
</g>
<g id="Vector_4">
<mask id="path-7-inside-4_718_8277" fill="white">
<path d="M13.7732 0.122559H8.25147C6.42074 0.122559 4.80693 1.31957 4.25896 3.0532C2.36151 3.45495 0.933105 5.14172 0.933105 7.157V10.3781C0.933105 12.5734 2.7255 14.4421 4.90801 14.5929V16.4327C4.90801 16.6246 5.00539 16.7842 5.16183 16.8489C5.20811 16.868 5.25638 16.8776 5.30465 16.8776C5.41112 16.8776 5.51759 16.8325 5.60276 16.747L6.03461 16.3152C7.13906 15.2107 8.63277 14.6026 10.2403 14.6026H10.65C12.5236 14.6026 14.1133 13.359 14.6505 11.6489C16.5536 11.2088 17.9684 9.47607 17.9684 7.53859V4.31778C17.9684 2.00439 16.0866 0.122559 13.7732 0.122559ZM10.65 14.0344H10.2403C8.48088 14.0344 6.84464 14.7019 5.63286 15.9134L5.47585 16.0707V14.3184V14.0344V13.1389C5.47585 12.9819 5.34865 12.855 5.19193 12.855C5.0352 12.855 4.90801 12.9819 4.90801 13.1389V14.0197C3.03413 13.8703 1.50095 12.2653 1.50095 10.3778V7.157C1.50095 5.41457 2.73629 3.95607 4.37679 3.60883L4.52443 3.58413C4.6292 3.56653 4.72885 3.55375 4.82539 3.54495C4.9046 3.53842 4.98438 3.53416 5.06502 3.53274C5.08574 3.53246 5.10789 3.5299 5.12833 3.5299H10.65C12.6503 3.52962 14.2774 5.15706 14.2774 7.157V10.3781C14.2774 10.4809 14.2703 10.5819 14.2621 10.6825C14.2578 10.731 14.2533 10.7793 14.247 10.8281C14.2433 10.8591 14.2377 10.8891 14.2331 10.9195C14.2115 11.0584 14.1834 11.1978 14.1454 11.3372L14.102 11.4976C13.6315 12.9675 12.2627 14.0344 10.65 14.0344ZM17.4006 7.53859C17.4006 9.12287 16.306 10.5524 14.7925 11.0266C14.7961 11.0041 14.7973 10.9817 14.8007 10.9593C14.8106 10.8877 14.8206 10.8165 14.8268 10.7438C14.8382 10.6214 14.8453 10.499 14.8453 10.3778V7.157C14.8453 6.86797 14.8157 6.58547 14.7598 6.31262C14.368 4.40268 12.6741 2.96177 10.65 2.96177H5.12833C5.12294 2.96177 5.11783 2.96263 5.11215 2.96263C5.03833 2.96291 4.96366 2.9649 4.88728 2.97001C5.43156 1.60889 6.75946 0.690686 8.25147 0.690686H13.7732C15.7734 0.690402 17.4006 2.31784 17.4006 4.31778V7.53859Z"/>
</mask>
<path d="M13.7732 0.122559H8.25147C6.42074 0.122559 4.80693 1.31957 4.25896 3.0532C2.36151 3.45495 0.933105 5.14172 0.933105 7.157V10.3781C0.933105 12.5734 2.7255 14.4421 4.90801 14.5929V16.4327C4.90801 16.6246 5.00539 16.7842 5.16183 16.8489C5.20811 16.868 5.25638 16.8776 5.30465 16.8776C5.41112 16.8776 5.51759 16.8325 5.60276 16.747L6.03461 16.3152C7.13906 15.2107 8.63277 14.6026 10.2403 14.6026H10.65C12.5236 14.6026 14.1133 13.359 14.6505 11.6489C16.5536 11.2088 17.9684 9.47607 17.9684 7.53859V4.31778C17.9684 2.00439 16.0866 0.122559 13.7732 0.122559ZM10.65 14.0344H10.2403C8.48088 14.0344 6.84464 14.7019 5.63286 15.9134L5.47585 16.0707V14.3184V14.0344V13.1389C5.47585 12.9819 5.34865 12.855 5.19193 12.855C5.0352 12.855 4.90801 12.9819 4.90801 13.1389V14.0197C3.03413 13.8703 1.50095 12.2653 1.50095 10.3778V7.157C1.50095 5.41457 2.73629 3.95607 4.37679 3.60883L4.52443 3.58413C4.6292 3.56653 4.72885 3.55375 4.82539 3.54495C4.9046 3.53842 4.98438 3.53416 5.06502 3.53274C5.08574 3.53246 5.10789 3.5299 5.12833 3.5299H10.65C12.6503 3.52962 14.2774 5.15706 14.2774 7.157V10.3781C14.2774 10.4809 14.2703 10.5819 14.2621 10.6825C14.2578 10.731 14.2533 10.7793 14.247 10.8281C14.2433 10.8591 14.2377 10.8891 14.2331 10.9195C14.2115 11.0584 14.1834 11.1978 14.1454 11.3372L14.102 11.4976C13.6315 12.9675 12.2627 14.0344 10.65 14.0344ZM17.4006 7.53859C17.4006 9.12287 16.306 10.5524 14.7925 11.0266C14.7961 11.0041 14.7973 10.9817 14.8007 10.9593C14.8106 10.8877 14.8206 10.8165 14.8268 10.7438C14.8382 10.6214 14.8453 10.499 14.8453 10.3778V7.157C14.8453 6.86797 14.8157 6.58547 14.7598 6.31262C14.368 4.40268 12.6741 2.96177 10.65 2.96177H5.12833C5.12294 2.96177 5.11783 2.96263 5.11215 2.96263C5.03833 2.96291 4.96366 2.9649 4.88728 2.97001C5.43156 1.60889 6.75946 0.690686 8.25147 0.690686H13.7732C15.7734 0.690402 17.4006 2.31784 17.4006 4.31778V7.53859Z" fill="#BB00DA"/>
<path d="M4.25896 3.0532L4.40599 3.74761L4.81099 3.66185L4.93576 3.26712L4.25896 3.0532ZM4.90801 14.5929H5.61781V13.9304L4.95692 13.8848L4.90801 14.5929ZM5.16183 16.8489L4.89044 17.5048L4.89198 17.5055L5.16183 16.8489ZM5.60276 16.747L5.10086 16.2451L5.10002 16.2459L5.60276 16.747ZM14.6505 11.6489L14.4906 10.9574L14.095 11.0488L13.9733 11.4362L14.6505 11.6489ZM5.63286 15.9134L5.13101 15.4115L5.1305 15.412L5.63286 15.9134ZM5.47585 16.0707H4.76605V17.7865L5.97821 16.5722L5.47585 16.0707ZM4.90801 14.0197L4.85162 14.7272L5.61781 14.7883V14.0197H4.90801ZM4.37679 3.60883L4.25966 2.90876L4.24467 2.91127L4.22981 2.91441L4.37679 3.60883ZM4.52443 3.58413L4.64156 4.2842L4.64204 4.28412L4.52443 3.58413ZM4.82539 3.54495L4.76707 2.83752L4.76094 2.83808L4.82539 3.54495ZM5.06502 3.53274L5.05529 2.823L5.05252 2.82305L5.06502 3.53274ZM10.65 3.5299V4.23971H10.6501L10.65 3.5299ZM14.2621 10.6825L14.9692 10.7445L14.9695 10.7404L14.2621 10.6825ZM14.247 10.8281L13.5429 10.738L13.5422 10.744L14.247 10.8281ZM14.2331 10.9195L14.9345 11.0285L14.9351 11.0245L14.2331 10.9195ZM14.1454 11.3372L13.4606 11.1503L13.4603 11.1516L14.1454 11.3372ZM14.102 11.4976L14.778 11.714L14.7829 11.6986L14.7871 11.6831L14.102 11.4976ZM14.7925 11.0266L14.0921 10.9113L13.905 12.0484L15.0046 11.7039L14.7925 11.0266ZM14.8007 10.9593L15.5025 11.0659L15.5037 11.0569L14.8007 10.9593ZM14.8268 10.7438L14.12 10.6782L14.1196 10.683L14.8268 10.7438ZM14.7598 6.31262L15.4551 6.17007L15.4551 6.16998L14.7598 6.31262ZM5.11215 2.96263V2.25282L5.10942 2.25283L5.11215 2.96263ZM4.88728 2.97001L4.22822 2.70646L3.80953 3.75352L4.93467 3.67823L4.88728 2.97001ZM13.7732 0.690686V1.40049H13.7733L13.7732 0.690686ZM13.7732 -0.587245H8.25147V0.832363H13.7732V-0.587245ZM8.25147 -0.587245C6.10842 -0.587245 4.22262 0.813037 3.58216 2.83927L4.93576 3.26712C5.39124 1.82611 6.73306 0.832363 8.25147 0.832363V-0.587245ZM4.11193 2.35879C1.89402 2.82839 0.223302 4.79865 0.223302 7.157H1.64291C1.64291 5.48479 2.82901 4.0815 4.40599 3.74761L4.11193 2.35879ZM0.223302 7.157V10.3781H1.64291V7.157H0.223302ZM0.223302 10.3781C0.223302 12.9565 2.31456 15.1253 4.85909 15.301L4.95692 13.8848C3.13644 13.759 1.64291 12.1903 1.64291 10.3781H0.223302ZM4.1982 14.5929V16.4327H5.61781V14.5929H4.1982ZM4.1982 16.4327C4.1982 16.8631 4.42634 17.3128 4.89044 17.5048L5.43323 16.1931C5.50123 16.2212 5.55191 16.2692 5.58223 16.3189C5.6116 16.3671 5.61781 16.409 5.61781 16.4327H4.1982ZM4.89198 17.5055C5.0212 17.5586 5.16096 17.5874 5.30465 17.5874V16.1678C5.3518 16.1678 5.39503 16.1774 5.43169 16.1924L4.89198 17.5055ZM5.30465 17.5874C5.61611 17.5874 5.89914 17.4551 6.10551 17.2481L5.10002 16.2459C5.13603 16.2098 5.20612 16.1678 5.30465 16.1678V17.5874ZM6.10467 17.2489L6.53652 16.8171L5.5327 15.8133L5.10086 16.2451L6.10467 17.2489ZM6.53652 16.8171C7.50354 15.8501 8.81483 15.3124 10.2403 15.3124V13.8928C8.45072 13.8928 6.77459 14.5714 5.5327 15.8133L6.53652 16.8171ZM10.2403 15.3124H10.65V13.8928H10.2403V15.3124ZM10.65 15.3124C12.8463 15.3124 14.7014 13.8553 15.3277 11.8616L13.9733 11.4362C13.5252 12.8626 12.201 13.8928 10.65 13.8928V15.3124ZM14.8104 12.3405C17.0248 11.8284 18.6782 9.81731 18.6782 7.53859H17.2586C17.2586 9.13483 16.0825 10.5893 14.4906 10.9574L14.8104 12.3405ZM18.6782 7.53859V4.31778H17.2586V7.53859H18.6782ZM18.6782 4.31778C18.6782 1.61238 16.4786 -0.587245 13.7732 -0.587245V0.832363C15.6946 0.832363 17.2586 2.3964 17.2586 4.31778H18.6782ZM10.65 13.3246H10.2403V14.7442H10.65V13.3246ZM10.2403 13.3246C8.29821 13.3246 6.47977 14.063 5.13101 15.4115L6.13471 16.4154C7.2095 15.3409 8.66355 14.7442 10.2403 14.7442V13.3246ZM5.1305 15.412L4.97349 15.5693L5.97821 16.5722L6.13522 16.4149L5.1305 15.412ZM6.18565 16.0707V14.3184H4.76605V16.0707H6.18565ZM6.18565 14.3184V14.0344H4.76605V14.3184H6.18565ZM6.18565 14.0344V13.1389H4.76605V14.0344H6.18565ZM6.18565 13.1389C6.18565 12.5895 5.74021 12.1452 5.19193 12.1452V13.5648C4.9571 13.5648 4.76605 13.3744 4.76605 13.1389H6.18565ZM5.19193 12.1452C4.64365 12.1452 4.1982 12.5895 4.1982 13.1389H5.61781C5.61781 13.3744 5.42676 13.5648 5.19193 13.5648V12.1452ZM4.1982 13.1389V14.0197H5.61781V13.1389H4.1982ZM4.9644 13.3121C3.44701 13.1912 2.21075 11.8828 2.21075 10.3778H0.791145C0.791145 12.6479 2.62125 14.5495 4.85162 14.7272L4.9644 13.3121ZM2.21075 10.3778V7.157H0.791145V10.3778H2.21075ZM2.21075 7.157C2.21075 5.7577 3.20372 4.58266 4.52377 4.30325L4.22981 2.91441C2.26886 3.32948 0.791145 5.07145 0.791145 7.157H2.21075ZM4.49392 4.3089L4.64156 4.2842L4.4073 2.88406L4.25966 2.90876L4.49392 4.3089ZM4.64204 4.28412C4.72944 4.26944 4.81137 4.25898 4.88984 4.25182L4.76094 2.83808C4.64634 2.84853 4.52895 2.86362 4.40682 2.88414L4.64204 4.28412ZM4.8837 4.25235C4.9492 4.24695 5.01363 4.24356 5.07751 4.24243L5.05252 2.82305C4.95513 2.82476 4.86 2.82988 4.76707 2.83754L4.8837 4.25235ZM5.07474 4.24248C5.09233 4.24224 5.10748 4.24156 5.11809 4.241C5.12804 4.24048 5.13795 4.23983 5.1415 4.23961C5.14681 4.23927 5.14683 4.23929 5.14553 4.23935C5.14392 4.23942 5.13757 4.23971 5.12833 4.23971V2.8201C5.10887 2.8201 5.09208 2.8207 5.07993 2.82126C5.06808 2.82181 5.05743 2.82248 5.05206 2.82282C5.04866 2.82304 5.04715 2.82313 5.04534 2.82324C5.04382 2.82334 5.04335 2.82336 5.04347 2.82335C5.04362 2.82335 5.04478 2.82329 5.04667 2.82322C5.04856 2.82315 5.05151 2.82306 5.05529 2.823L5.07474 4.24248ZM5.12833 4.23971H10.65V2.8201H5.12833V4.23971ZM10.6501 4.23971C12.2582 4.23948 13.5676 5.54901 13.5676 7.157H14.9872C14.9872 4.7651 13.0423 2.81976 10.6499 2.8201L10.6501 4.23971ZM13.5676 7.157V10.3781H14.9872V7.157H13.5676ZM13.5676 10.3781C13.5676 10.4503 13.5626 10.5273 13.5547 10.6245L14.9695 10.7404C14.978 10.6366 14.9872 10.5114 14.9872 10.3781H13.5676ZM13.555 10.6204C13.5509 10.667 13.5474 10.7038 13.543 10.7381L14.9511 10.9182C14.9592 10.8548 14.9647 10.795 14.9692 10.7445L13.555 10.6204ZM13.5422 10.744C13.5422 10.744 13.5421 10.7452 13.5417 10.7481C13.5412 10.7511 13.5406 10.7551 13.5396 10.7611C13.5383 10.7696 13.5379 10.7715 13.536 10.7831C13.5346 10.7919 13.5329 10.8027 13.5311 10.8146L14.9351 11.0245C14.9366 11.0146 14.9376 11.0093 14.9412 10.987C14.944 10.9692 14.9482 10.9424 14.9518 10.9122L13.5422 10.744ZM13.5317 10.8105C13.5134 10.9283 13.4904 11.0411 13.4606 11.1503L14.8302 11.5241C14.8765 11.3544 14.9097 11.1884 14.9345 11.0285L13.5317 10.8105ZM13.4603 11.1516L13.4168 11.3121L14.7871 11.6831L14.8305 11.5227L13.4603 11.1516ZM13.4259 11.2812C13.0455 12.47 11.9408 13.3246 10.65 13.3246V14.7442C12.5847 14.7442 14.2175 13.4649 14.778 11.714L13.4259 11.2812ZM16.6908 7.53859C16.6908 8.79888 15.8111 9.96366 14.5803 10.3492L15.0046 11.7039C16.801 11.1412 18.1104 9.44686 18.1104 7.53859H16.6908ZM15.4928 11.1418C15.4985 11.1073 15.5016 11.0767 15.5026 11.0666C15.5034 11.0593 15.5035 11.0581 15.5037 11.057C15.5037 11.0566 15.5033 11.0602 15.5024 11.0659L14.0989 10.8527C14.0964 10.8696 14.0945 10.8844 14.0933 10.8952C14.0921 10.9053 14.0911 10.9153 14.0907 10.9192C14.0901 10.9247 14.0901 10.9252 14.0902 10.9245C14.0903 10.9233 14.0909 10.9185 14.0921 10.9113L15.4928 11.1418ZM15.5037 11.0569C15.5132 10.9887 15.5259 10.8989 15.534 10.8046L14.1196 10.683C14.1152 10.734 14.108 10.7868 14.0976 10.8616L15.5037 11.0569ZM15.5336 10.8094C15.5464 10.6712 15.5551 10.5263 15.5551 10.3778H14.1355C14.1355 10.4718 14.1299 10.5716 14.12 10.6782L15.5336 10.8094ZM15.5551 10.3778V7.157H14.1355V10.3778H15.5551ZM15.5551 7.157C15.5551 6.81953 15.5206 6.48928 15.4551 6.17007L14.0645 6.45516C14.1109 6.68166 14.1355 6.91641 14.1355 7.157H15.5551ZM15.4551 6.16998C14.9971 3.93703 13.0184 2.25197 10.65 2.25197V3.67158C12.3298 3.67158 13.7389 4.86833 14.0645 6.45526L15.4551 6.16998ZM10.65 2.25197H5.12833V3.67158H10.65V2.25197ZM5.12833 2.25197C5.10855 2.25197 5.09227 2.25275 5.08168 2.25339C5.07635 2.25371 5.07193 2.25403 5.06904 2.25424C5.0664 2.25444 5.06395 2.25464 5.06376 2.25466C5.06295 2.25472 5.06416 2.25462 5.06575 2.2545C5.06752 2.25437 5.07071 2.25414 5.07478 2.25391C5.08291 2.25343 5.09596 2.25282 5.11215 2.25282V3.67243C5.13117 3.67243 5.14699 3.67172 5.15785 3.67108C5.16328 3.67076 5.16782 3.67044 5.17094 3.67021C5.17387 3.66999 5.17641 3.66979 5.17694 3.66974C5.17807 3.66965 5.17695 3.66974 5.17563 3.66984C5.17407 3.66996 5.17097 3.67019 5.16697 3.67043C5.15903 3.67091 5.14541 3.67158 5.12833 3.67158V2.25197ZM5.10942 2.25283C5.02479 2.25315 4.93472 2.25544 4.83989 2.26179L4.93467 3.67823C4.99259 3.67435 5.05186 3.67267 5.11488 3.67242L5.10942 2.25283ZM5.54635 3.23355C5.98412 2.13878 7.05313 1.40049 8.25147 1.40049V-0.0191183C6.46579 -0.0191183 4.879 1.079 4.22822 2.70646L5.54635 3.23355ZM8.25147 1.40049H13.7732V-0.0191183H8.25147V1.40049ZM13.7733 1.40049C15.3814 1.40026 16.6908 2.7098 16.6908 4.31778H18.1104C18.1104 1.92588 16.1654 -0.0194579 13.7731 -0.0191183L13.7733 1.40049ZM16.6908 4.31778V7.53859H18.1104V4.31778H16.6908Z" fill="#BB00DA" mask="url(#path-7-inside-4_718_8277)"/>
</g>
</g>
</svg>
