<svg width="59" height="59" viewBox="0 0 59 59" fill="none" xmlns="http://www.w3.org/2000/svg">
<g id="Group 171">
<circle id="Ellipse 57" cx="29.5" cy="29.5" r="29.5" fill="#BB00DA"/>
<g id="Group">
<g id="Group_2">
<path id="Vector" d="M44.4319 27.3754C44.0555 20.4958 37.5028 15 29.5 15C21.4973 15 14.9446 20.4958 14.5682 27.3754C11.961 27.5646 10 28.912 10 30.6V33.2C10 35.0226 12.2841 36.45 15.2 36.45C15.5595 36.45 15.85 36.1595 15.85 35.8001V28.0001C15.85 21.5488 21.9737 16.3 29.5 16.3C37.0264 16.3 43.1501 21.5488 43.1501 28.0001V35.531L41.581 37.1H40.2355C40.8536 35.5264 41.2001 33.7941 41.2001 31.9721C41.2001 24.8436 35.9514 19.0443 29.5001 19.0443C23.0489 19.0443 17.8001 24.8436 17.8001 31.9721C17.8001 39.1007 23.0488 44.9001 29.5 44.9001C33.8329 44.9001 37.6146 42.278 39.6368 38.4001H41.85C42.0229 38.4001 42.188 38.3319 42.3096 38.2097L44.0737 36.4456C46.8576 36.3599 49 34.9656 49 33.2002V30.6002C49.0001 28.912 47.039 27.5646 44.4319 27.3754ZM38.8198 37.1007H32.7501C32.7501 36.0256 31.8752 35.1507 30.8001 35.1507H28.2001C27.125 35.1507 26.2501 36.0256 26.2501 37.1007V38.4007C26.2501 39.4758 27.125 40.3507 28.2001 40.3507H30.8001C31.8752 40.3507 32.7501 39.4758 32.7501 38.4007H38.1593C36.2938 41.5311 33.1101 43.6001 29.5 43.6001C23.7657 43.6001 19.1 38.3845 19.1 31.9722C19.1 25.5599 23.7657 20.345 29.5 20.345C35.2343 20.345 39.9 25.5606 39.9 31.9729C39.9 33.8149 39.5049 35.5511 38.8198 37.1007Z" fill="white"/>
</g>
</g>
</g>
</svg>
