<svg width="38" height="37" viewBox="0 0 38 37" fill="none" xmlns="http://www.w3.org/2000/svg">
<g id="Group">
<path id="Vector" d="M18.792 36.8516C28.889 36.8516 37.0743 28.6664 37.0743 18.5694C37.0743 8.47236 28.889 0.287109 18.792 0.287109C8.69501 0.287109 0.509766 8.47236 0.509766 18.5694C0.509766 28.6664 8.69501 36.8516 18.792 36.8516Z" fill="#55ACEE"/>
<g id="Group_2">
<path id="Vector_2" d="M29.9905 13.4262C29.2071 13.7736 28.3643 14.0086 27.4804 14.1135C28.3829 13.5729 29.0754 12.7174 29.4023 11.6963C28.5579 12.1972 27.6222 12.5606 26.6272 12.7565C25.8301 11.9075 24.6943 11.377 23.4367 11.377C21.0237 11.377 19.0667 13.334 19.0667 15.7469C19.0667 16.0894 19.1055 16.4228 19.1805 16.7429C15.5486 16.5607 12.3284 14.821 10.1729 12.1764C9.79686 12.8217 9.58111 13.5729 9.58111 14.3736C9.58111 15.8893 10.3532 17.2275 11.5251 18.0109C10.8091 17.9885 10.1348 17.7919 9.54591 17.4638C9.54559 17.4823 9.54559 17.5009 9.54559 17.5192C9.54559 19.6365 11.0525 21.4026 13.0513 21.8038C12.685 21.9041 12.2981 21.9572 11.9002 21.9572C11.618 21.9572 11.3445 21.9302 11.078 21.8794C11.6339 23.6151 13.2475 24.8786 15.1602 24.9141C13.6643 26.0864 11.7803 26.7848 9.73233 26.7848C9.38036 26.7848 9.03165 26.7643 8.69043 26.7235C10.6233 27.9639 12.9209 28.6871 15.3886 28.6871C23.4266 28.6871 27.8223 22.0283 27.8223 16.253C27.8223 16.0637 27.8181 15.875 27.8096 15.6879C28.6641 15.072 29.4049 14.3025 29.9905 13.4262Z" fill="#F1F2F2"/>
</g>
</g>
</svg>
