<svg width="41" height="41" viewBox="0 0 41 41" fill="none" xmlns="http://www.w3.org/2000/svg">
<g id="vuesax/linear/gallery-add">
<g id="gallery-add">
<path id="Vector" d="M15.3757 17.0833C17.2626 17.0833 18.7923 15.5536 18.7923 13.6667C18.7923 11.7797 17.2626 10.25 15.3757 10.25C13.4887 10.25 11.959 11.7797 11.959 13.6667C11.959 15.5536 13.4887 17.0833 15.3757 17.0833Z" stroke="#BB00DA" stroke-width="2.5625" stroke-linecap="round" stroke-linejoin="round"/>
<path id="Vector_2" d="M22.2077 3.41602H15.3743C6.83268 3.41602 3.41602 6.83268 3.41602 15.3743V25.6243C3.41602 34.166 6.83268 37.5827 15.3743 37.5827H25.6243C34.166 37.5827 37.5827 34.166 37.5827 25.6243V17.0827" stroke="#BB00DA" stroke-width="2.5625" stroke-linecap="round" stroke-linejoin="round"/>
<path id="Vector_3" d="M26.9062 8.54102H36.3021" stroke="#BB00DA" stroke-width="2.5625" stroke-linecap="round"/>
<path id="Vector_4" d="M31.6035 13.2396V3.84375" stroke="#BB00DA" stroke-width="2.5625" stroke-linecap="round"/>
<path id="Vector_5" d="M4.56152 32.3723L12.9836 26.7177C14.3332 25.8123 16.2807 25.9148 17.4936 26.9569L18.0574 27.4523C19.3899 28.5969 21.5424 28.5969 22.8749 27.4523L29.9815 21.3536C31.314 20.209 33.4665 20.209 34.799 21.3536L37.5836 23.7452" stroke="#BB00DA" stroke-width="2.5625" stroke-linecap="round" stroke-linejoin="round"/>
</g>
</g>
</svg>
