<svg width="12" height="11" viewBox="0 0 12 11" fill="none" xmlns="http://www.w3.org/2000/svg">
<g id="Group 98">
<path id="Vector" d="M1.02832 9.06532V8.548C1.02832 6.54804 2.64961 4.92676 4.64956 4.92676" stroke="#BB00DA" stroke-width="0.775981" stroke-linecap="round" stroke-linejoin="round"/>
<path id="Vector_2" d="M8.16886 5.08885C8.50088 4.72429 9.07448 4.72429 9.4065 5.08885C9.57432 5.27312 9.81549 5.37301 10.0644 5.36137C10.557 5.33835 10.9626 5.74398 10.9396 6.23652C10.9279 6.48546 11.0278 6.72663 11.2121 6.89445C11.5767 7.22647 11.5767 7.80007 11.2121 8.13209C11.0278 8.2999 10.9279 8.54108 10.9396 8.79001C10.9626 9.28256 10.557 9.68819 10.0644 9.66517C9.81549 9.65353 9.57432 9.75342 9.4065 9.93769C9.07448 10.3022 8.50088 10.3022 8.16886 9.93769C8.00104 9.75342 7.75987 9.65353 7.51094 9.66517C7.01839 9.68819 6.61276 9.28256 6.63578 8.79001C6.64742 8.54108 6.54753 8.2999 6.36326 8.13209C5.9987 7.80007 5.9987 7.22647 6.36326 6.89445C6.54753 6.72663 6.64742 6.48546 6.63578 6.23652C6.61276 5.74398 7.01839 5.33835 7.51094 5.36137C7.75987 5.37301 8.00104 5.27312 8.16886 5.08885Z" stroke="#BB00DA" stroke-width="0.775981"/>
<path id="Vector_3" d="M7.94092 7.51356L8.50531 8.07791L9.634 6.94922" stroke="#BB00DA" stroke-width="0.775981" stroke-linecap="round" stroke-linejoin="round"/>
<path id="Vector_4" d="M4.64936 4.92665C5.79217 4.92665 6.71864 4.00018 6.71864 2.85737C6.71864 1.71453 5.79217 0.788086 4.64936 0.788086C3.50653 0.788086 2.58008 1.71453 2.58008 2.85737C2.58008 4.00018 3.50653 4.92665 4.64936 4.92665Z" stroke="#BB00DA" stroke-width="0.775981" stroke-linecap="round" stroke-linejoin="round"/>
</g>
</svg>
